<svg width="52" height="39" viewBox="0 0 52 39" fill="none" xmlns="http://www.w3.org/2000/svg">
<path d="M17.2917 29.5775C19.5639 32.8697 22.8595 35.3196 26.6668 36.5468C30.474 37.774 34.58 37.7099 38.3471 36.3643C42.1142 35.0187 45.3316 32.4669 47.4997 29.1053C49.6679 25.7437 50.6655 21.7602 50.3377 17.7735C50.0098 13.7868 48.3748 10.0198 45.6866 7.05758C42.9983 4.09533 39.4073 2.10353 35.471 1.39145C31.5347 0.679371 27.4734 1.28686 23.9177 3.11958C20.3621 4.9523 17.511 7.90772 15.8072 11.5269" stroke="black" stroke-width="2"/>
<path d="M31.8322 25.2634L38.5002 19C19.0509 20.3144 8.34621 21.1479 1.00024 19" stroke="black" stroke-width="2"/>
</svg>
