<svg width="57" height="39" viewBox="0 0 57 39" fill="none" xmlns="http://www.w3.org/2000/svg">
<path d="M34.2084 29.5775C31.9363 32.8697 28.6407 35.3196 24.8334 36.5468C21.0261 37.774 16.9201 37.7099 13.153 36.3643C9.38595 35.0187 6.16854 32.4669 4.00037 29.1053C1.83221 25.7437 0.834607 21.7602 1.16247 17.7735C1.49034 13.7868 3.12532 10.0198 5.81356 7.05758C8.50179 4.09533 12.0929 2.10353 16.0292 1.39145C19.9655 0.679371 24.0267 1.28686 27.5824 3.11958C31.138 4.9523 33.9891 7.90772 35.6929 11.5269" stroke="black" stroke-width="2"/>
<path d="M25.668 16L19 22.2634C38.4493 20.9491 49.154 20.1155 56.5 22.2634" stroke="black" stroke-width="2"/>
</svg>
