<svg width="117" height="64" viewBox="0 0 117 64" fill="none" xmlns="http://www.w3.org/2000/svg">
<path d="M0.693554 39.5117L108.64 0.155998L108.526 1.3764L110 2.88936L108.657 4.88911L110.551 5.48107L109.555 8.16184L111.597 8.70756L110.773 10.9296L112.64 11.9248L112.216 14.8217L113.886 15.8785L113.727 18.6922L115.278 19.7965L114.628 21.9742L116.076 22.7056L115.74 24.3902L9.47258 63.564L8.40976 61.9273L8.99885 60.5583L7.74715 58.5809L7.57767 56.6595L5.97172 55.1878L6.47987 52.6595L4.87392 51.1878L3.79834 49.1552L3.67632 46.8242L2.27864 45.2873L2.67835 43.1878L0.74902 41.8173L0.693554 39.5117Z" fill="#916E16"/>
<path d="M0.693554 39.5117L108.64 0.155998L108.526 1.3764L110 2.88936L108.657 4.88911L110.551 5.48107L109.555 8.16184L111.597 8.70756L110.773 10.9296L112.64 11.9248L112.216 14.8217L113.886 15.8785L113.727 18.6922L115.278 19.7965L114.628 21.9742L116.076 22.7056L115.74 24.3902L9.47258 63.564L8.40976 61.9273L8.99885 60.5583L7.74715 58.5809L7.57767 56.6595L5.97172 55.1878L6.47987 52.6595L4.87392 51.1878L3.79834 49.1552L3.67632 46.8242L2.27864 45.2873L2.67835 43.1878L0.74902 41.8173L0.693554 39.5117Z" fill="#916E16"/>
</svg>
