<svg width="139" height="49" viewBox="0 0 139 49" fill="none" xmlns="http://www.w3.org/2000/svg">
<path d="M31.1085 30.6774C29.9157 32.4057 28.1856 33.6919 26.1868 34.3361C24.1881 34.9804 22.0326 34.9467 20.0549 34.2403C18.0773 33.5339 16.3882 32.1943 15.25 30.4295C14.1117 28.6647 13.588 26.5735 13.7601 24.4806C13.9323 22.3876 14.7906 20.41 16.2019 18.8549C17.6131 17.2998 19.4984 16.2542 21.5648 15.8803C23.6313 15.5065 25.7634 15.8254 27.63 16.7876C29.4966 17.7497 30.9934 19.3012 31.8878 21.2012" stroke="black"/>
<path d="M26.4341 23.5L22.9341 27C47.4341 21 67.9341 31.5 125.934 27" stroke="black"/>
</svg>
